<?xml version="1.0" standalone="no"?>
<!DOCTYPE svg PUBLIC "-//W3C//DTD SVG 20010904//EN"
 "http://www.w3.org/TR/2001/REC-SVG-20010904/DTD/svg10.dtd">
<svg version="1.0" xmlns="http://www.w3.org/2000/svg"
 width="400.000000pt" height="400.000000pt" viewBox="0 0 400.000000 400.000000"
 preserveAspectRatio="xMidYMid meet">
<metadata>
Created by potrace 1.14, written by Peter Selinger 2001-2017
</metadata>
<g transform="translate(0.000000,400.000000) scale(0.100000,-0.100000)"
fill="#000000" stroke="none">
<path d="M3995 2000 c0 -1103 1 -1554 2 -1002 2 551 2 1453 0 2005 -1 551 -2
100 -2 -1003z"/>
<path d="M1894 3765 c-24 -18 -54 -19 -54 -2 0 9 -2 9 -8 0 -4 -7 -28 -14 -52
-17 -67 -6 -95 -15 -108 -37 -11 -17 -8 -24 18 -52 16 -17 30 -36 30 -40 0 -5
16 -25 35 -45 19 -20 33 -43 30 -49 -2 -7 3 -29 11 -49 10 -24 13 -50 9 -73
-13 -82 -30 -138 -49 -163 -11 -15 -17 -31 -13 -34 3 -4 -2 -19 -13 -34 -11
-16 -20 -39 -20 -52 0 -13 -11 -36 -25 -51 -14 -15 -21 -27 -15 -27 16 0 12
-18 -11 -41 -11 -11 -18 -27 -15 -36 3 -8 0 -21 -8 -29 -21 -21 -36 -137 -33
-254 4 -114 36 -228 77 -272 11 -12 20 -28 20 -36 0 -8 27 -42 60 -76 96 -97
104 -107 156 -188 64 -101 79 -104 50 -8 -22 72 -75 205 -102 255 -13 25 -24
52 -24 59 0 8 -6 26 -14 41 -22 43 -30 161 -16 251 7 43 17 83 21 89 5 5 9 18
9 30 0 11 9 31 20 45 11 14 20 30 20 36 0 5 12 26 26 45 14 19 30 44 35 57 5
12 13 22 19 22 5 0 10 7 10 16 0 16 37 65 99 130 17 17 38 48 47 68 10 20 24
36 31 36 7 0 13 9 13 19 0 10 6 21 14 24 18 7 46 64 45 92 -1 40 9 77 22 85
13 9 8 25 -20 70 -6 8 -17 36 -26 61 -12 33 -27 52 -58 72 -22 15 -48 27 -57
27 -9 0 -25 7 -36 15 -10 8 -39 15 -64 15 -26 0 -51 5 -56 10 -7 7 -17 5 -30
-5z"/>
<path d="M3094 3273 c-4 -13 -4 -32 -1 -43 3 -11 1 -23 -4 -26 -5 -3 -9 -22
-9 -42 -1 -29 -28 -105 -30 -81 0 4 -21 -15 -47 -42 -41 -41 -54 -49 -85 -49
-27 0 -38 -4 -38 -15 0 -8 -12 -17 -27 -20 -16 -3 -48 -12 -73 -21 -25 -9 -58
-18 -75 -21 -16 -3 -35 -10 -41 -14 -6 -5 -19 -6 -28 -3 -11 4 -29 -2 -45 -14
-21 -15 -31 -18 -40 -9 -8 8 -11 8 -11 -1 0 -7 -31 -26 -70 -43 -38 -18 -70
-36 -70 -40 0 -5 -6 -9 -13 -9 -34 0 -152 -107 -163 -148 -4 -12 -15 -27 -25
-33 -11 -5 -19 -16 -19 -23 0 -7 -9 -25 -20 -39 -11 -13 -22 -42 -26 -63 -3
-20 -10 -48 -15 -61 -5 -14 -9 -36 -9 -50 0 -36 -60 -283 -77 -316 -20 -40 -7
-47 22 -12 24 29 105 162 105 172 0 3 8 17 18 31 10 15 25 43 32 62 16 43 94
155 127 184 14 11 43 38 64 59 22 20 49 37 59 37 11 0 20 4 20 9 0 10 31 22
134 51 80 22 378 45 435 34 30 -6 165 10 202 25 13 5 27 8 31 7 4 0 22 14 41
32 18 18 36 30 38 27 3 -3 19 25 35 63 30 69 34 112 19 186 -10 48 -82 166
-101 166 -8 0 -14 7 -14 16 0 8 -4 12 -10 9 -5 -3 -10 -1 -10 4 0 18 -39 51
-60 51 -11 0 -20 4 -20 9 0 10 -42 24 -78 27 -16 1 -24 -6 -28 -23z"/>
<path d="M685 3157 c-22 -12 -41 -25 -43 -29 -2 -5 -12 -8 -23 -8 -10 0 -19
-7 -19 -15 0 -8 -11 -22 -25 -31 -14 -9 -25 -22 -25 -30 0 -7 -11 -21 -25 -30
-14 -9 -25 -25 -25 -35 0 -11 -4 -19 -9 -19 -17 0 -20 -104 -4 -129 11 -18 13
-26 5 -29 -7 -2 -12 -8 -12 -14 0 -7 20 -9 56 -5 39 4 79 0 131 -14 76 -19
103 -33 103 -52 0 -5 17 -25 38 -43 20 -18 32 -33 25 -34 -15 0 14 -59 33 -67
8 -3 14 -13 14 -23 0 -11 5 -22 10 -25 6 -4 28 -43 50 -88 55 -113 80 -157 91
-157 5 0 9 -8 9 -18 0 -19 79 -102 97 -102 6 0 13 -9 16 -20 3 -12 14 -20 26
-20 12 0 21 -6 21 -15 0 -8 12 -18 28 -21 15 -4 34 -12 42 -19 8 -7 30 -16 48
-20 18 -4 30 -10 27 -15 -10 -16 101 -27 305 -29 113 -1 223 -6 245 -11 34 -8
58 -6 44 3 -49 32 -249 107 -284 107 -21 0 -164 49 -206 70 -19 10 -41 26 -48
34 -8 9 -18 16 -23 16 -5 0 -25 16 -45 35 -20 19 -40 35 -45 35 -4 0 -8 6 -8
13 0 8 -14 33 -30 55 -17 23 -30 45 -30 48 0 4 -13 34 -30 68 -16 33 -37 90
-46 126 -8 36 -21 79 -29 95 -7 17 -16 56 -18 87 -3 32 -11 66 -17 78 -7 14
-8 20 0 20 7 0 7 6 0 21 -7 11 -9 27 -6 35 6 15 -90 164 -105 164 -5 0 -9 7
-9 15 0 14 -52 33 -72 27 -5 -1 -8 2 -8 7 0 11 -41 21 -105 26 -38 3 -60 -2
-90 -18z"/>
<path d="M2613 2209 c-10 -4 -36 -9 -58 -12 -73 -10 -156 -45 -220 -92 -41
-31 -135 -77 -227 -111 -90 -33 -85 -44 22 -44 90 0 348 28 373 41 10 5 22 7
28 4 5 -4 26 -8 47 -11 55 -6 174 -45 201 -66 13 -10 32 -18 43 -18 10 0 21
-6 24 -14 3 -7 25 -28 50 -45 24 -18 44 -39 44 -47 0 -8 7 -14 15 -14 8 0 27
-19 43 -42 16 -24 39 -52 51 -62 11 -11 21 -25 21 -32 0 -6 20 -36 44 -65 25
-30 42 -57 39 -62 -3 -5 5 -11 16 -14 13 -3 20 -12 19 -22 -2 -9 2 -15 9 -14
6 1 14 -11 18 -27 4 -18 17 -35 33 -43 15 -7 26 -20 26 -29 -1 -11 10 -18 37
-22 22 -3 48 -15 59 -26 19 -19 77 -27 160 -20 27 2 100 47 100 62 0 4 10 13
23 19 13 6 29 27 37 47 7 20 18 44 25 52 19 23 43 106 56 197 10 67 10 90 -1
123 -10 29 -10 44 -2 52 6 6 8 17 5 25 -5 12 -7 12 -14 2 -5 -9 -10 -5 -14 14
-6 22 -13 27 -36 27 -22 0 -29 -5 -29 -19 0 -14 -5 -18 -19 -14 -20 5 -51 -21
-51 -43 0 -8 -5 -12 -10 -9 -6 4 -8 11 -5 16 4 5 1 9 -4 9 -6 0 -11 -4 -11
-10 0 -6 -30 -10 -70 -10 -56 0 -70 3 -70 15 0 9 -9 15 -22 15 -13 0 -36 7
-52 15 -15 8 -35 15 -42 15 -8 0 -14 3 -14 8 0 4 -18 15 -40 25 -22 9 -40 24
-40 32 0 8 -5 15 -11 15 -6 0 -17 7 -26 15 -8 9 -28 19 -44 22 -18 3 -29 12
-29 23 0 16 -37 40 -61 40 -6 0 -25 10 -42 23 -38 27 -76 47 -88 47 -6 0 -21
8 -36 17 -14 10 -33 19 -42 20 -95 19 -217 30 -238 22z"/>
<path d="M1851 1900 c-30 -17 -62 -37 -71 -45 -9 -8 -24 -15 -33 -15 -9 0 -17
-4 -17 -9 0 -5 -17 -20 -37 -33 -20 -12 -49 -31 -63 -40 -14 -10 -42 -27 -62
-38 -21 -11 -38 -26 -38 -32 0 -6 -3 -9 -6 -5 -4 3 -18 0 -33 -7 -57 -28 -159
-48 -228 -44 -89 6 -223 29 -223 40 0 4 -9 8 -20 8 -11 0 -20 4 -20 10 0 5
-20 15 -44 21 -24 6 -54 20 -65 30 -12 11 -35 19 -57 19 -25 0 -35 4 -31 13 3
7 -11 20 -34 31 -22 11 -39 23 -39 28 0 5 -5 6 -11 3 -5 -4 -18 0 -27 8 -34
30 -114 49 -200 48 -72 -2 -85 -5 -109 -27 -14 -13 -34 -24 -44 -24 -11 0 -19
-7 -19 -15 0 -8 -7 -15 -15 -15 -8 0 -20 -10 -26 -22 -7 -13 -16 -25 -20 -28
-4 -3 -12 -47 -17 -98 -9 -90 -3 -163 17 -201 6 -10 7 -21 4 -25 -4 -4 5 -18
19 -31 15 -13 29 -34 33 -45 3 -11 11 -20 16 -20 5 0 9 -6 9 -14 0 -17 35 -31
51 -20 8 5 7 9 -2 14 -10 7 -9 11 2 22 8 8 20 13 27 10 7 -2 10 2 7 10 -3 8
10 28 30 46 19 18 35 37 35 42 0 6 9 10 21 10 11 0 18 3 16 8 -6 9 10 11 170
16 l133 4 21 -26 c16 -21 22 -23 29 -12 6 10 12 11 22 2 23 -18 208 -38 217
-23 6 9 49 11 161 10 128 -2 154 0 161 13 5 9 34 26 65 38 34 14 51 26 43 30
-7 5 0 10 20 15 17 3 31 13 31 21 0 8 6 14 13 14 6 0 28 22 47 47 31 41 82
105 122 153 82 97 125 146 133 152 26 19 -15 5 -64 -22z m-844 -456 c-3 -3
-12 -4 -19 -1 -8 3 -5 6 6 6 11 1 17 -2 13 -5z"/>
<path d="M2030 1914 c0 -29 115 -157 240 -270 65 -58 124 -135 154 -200 21
-47 46 -178 46 -243 0 -67 -38 -312 -51 -326 -5 -5 -9 -24 -9 -43 0 -22 -4
-31 -12 -26 -6 4 -8 3 -5 -4 4 -5 1 -23 -7 -39 -29 -58 -39 -109 -37 -191 2
-96 17 -134 58 -154 17 -8 27 -21 25 -30 -3 -22 32 -44 83 -54 33 -6 36 -8 20
-15 -13 -5 8 -8 55 -7 50 1 87 7 110 19 19 10 53 23 75 29 39 11 105 61 105
78 0 5 9 17 20 27 11 10 20 26 20 36 0 10 -9 23 -20 29 -11 6 -20 20 -20 31 0
17 -4 20 -24 15 -18 -4 -32 1 -55 21 -17 15 -31 33 -31 40 0 6 -11 24 -25 39
-18 20 -25 38 -25 68 0 23 -7 66 -15 96 -19 71 -19 123 1 161 16 31 16 102 0
128 -5 8 -10 46 -12 85 -1 39 -9 87 -17 106 -8 19 -13 40 -10 46 2 6 -8 33
-22 59 -14 26 -25 55 -25 64 0 9 -14 29 -30 45 -17 16 -30 33 -30 38 0 8 -23
31 -91 92 -17 16 -51 37 -75 48 -24 10 -46 23 -49 28 -3 6 -17 10 -31 10 -13
0 -24 4 -24 9 0 5 -10 13 -22 16 -13 4 -39 17 -58 30 -19 13 -54 33 -76 46
-23 13 -56 34 -73 47 -17 13 -31 20 -31 16z"/>
<path d="M1956 1839 c-18 -65 -26 -139 -31 -276 -4 -113 -26 -201 -66 -263 -5
-8 -16 -30 -25 -48 -8 -18 -21 -35 -29 -39 -8 -3 -15 -10 -15 -17 0 -6 -14
-22 -31 -36 -18 -14 -41 -34 -53 -45 -22 -22 -33 -29 -92 -61 -22 -12 -48 -31
-58 -43 -11 -12 -24 -21 -30 -21 -6 0 -36 -13 -66 -28 -30 -16 -73 -32 -94
-36 -36 -7 -75 -23 -86 -37 -3 -3 -22 -12 -42 -18 -21 -7 -38 -16 -38 -21 0
-4 -11 -11 -24 -14 -29 -7 -76 -64 -110 -132 -24 -49 -37 -139 -22 -162 4 -6
14 -34 22 -62 8 -27 18 -50 23 -50 12 0 51 -36 51 -48 0 -5 20 -19 45 -31 25
-12 45 -25 45 -29 0 -14 163 -44 210 -38 25 2 46 5 48 5 10 3 -1 31 -13 31
-10 0 -15 11 -15 35 0 19 -4 44 -10 55 -5 11 -14 29 -20 40 -14 27 -13 30 9
30 29 0 45 24 26 40 -14 11 -13 14 4 26 10 8 22 25 25 39 4 14 11 25 16 25 6
0 10 7 10 15 0 8 4 15 9 15 9 0 29 47 27 63 -1 5 18 17 42 28 23 11 42 25 42
32 0 7 20 23 45 37 25 14 45 29 45 34 0 14 58 66 74 66 8 0 18 9 21 20 4 11
10 18 15 15 5 -3 18 12 30 35 11 22 27 40 35 40 8 0 15 5 15 10 0 12 12 28 53
72 15 16 27 38 27 48 0 9 7 23 15 30 9 7 13 21 10 31 -3 10 1 31 9 47 32 62
19 303 -21 412 -9 23 -12 39 -24 135 -6 50 -12 92 -14 94 -2 2 -11 -21 -19
-50z"/>
<path d="M2800 629 c0 -5 5 -7 10 -4 6 3 10 8 10 11 0 2 -4 4 -10 4 -5 0 -10
-5 -10 -11z"/>
</g>
</svg>
